<svg width="16" height="18" viewBox="0 0 16 18" fill="none" xmlns="http://www.w3.org/2000/svg">
<path d="M3.34358 15.6781L3.34358 15.6781L2.53827 5.71987H2.26125C1.97492 5.71987 1.70439 5.58123 1.53705 5.34899C1.36971 5.11675 1.32381 4.81626 1.41443 4.54465L3.34358 15.6781ZM3.34358 15.6781C3.40821 16.4757 4.08432 17.1 4.88417 17.1H11.2861C12.0859 17.1 12.7621 16.4757 12.8266 15.678L13.6319 5.71987H13.7442C14.0305 5.71987 14.301 5.58123 14.4683 5.34913L14.4684 5.34911C14.6357 5.11687 14.6816 4.81625 14.591 4.54465L14.2377 3.48569C14.0896 3.04155 13.6753 2.74302 13.2072 2.74302H10.3381V1.87634C10.3381 1.33802 9.90052 0.9 9.3622 0.9H6.64321C6.10501 0.9 5.66735 1.33801 5.66735 1.87634V2.74302H2.79836C2.33016 2.74302 1.91585 3.04154 1.76771 3.48569C1.7677 3.48569 1.7677 3.48569 1.7677 3.48569L1.41444 4.54464L3.34358 15.6781ZM13.4045 4.58237H2.60107L2.83519 3.88052H13.1703L13.4045 4.58237ZM6.80485 2.0375H9.20055V2.74302H6.80485V2.0375ZM11.6928 15.5863C11.6758 15.7971 11.4965 15.9625 11.2861 15.9625H4.88417C4.67378 15.9625 4.49455 15.7971 4.4775 15.5863L3.67948 5.71987H12.4907L11.6928 15.5863Z" fill="#007AFF" stroke="#007AFF" stroke-width="0.2"/>
<path d="M11.3284 6.67273L11.3284 6.67275L10.8882 15.1227L10.8882 15.1227L10.7884 15.1175C10.7754 15.3677 10.5684 15.5618 10.3207 15.5618C10.3124 15.5618 10.3042 15.5617 10.2959 15.5612L11.3284 6.67273ZM11.3284 6.67273C11.3447 6.35907 11.1036 6.09142 10.79 6.07513L10.7848 6.17499L10.7901 6.07513C10.4755 6.05839 10.2088 6.30001 10.1924 6.61348L10.1924 6.61352L9.75234 15.0635L9.75234 15.0635C9.73606 15.377 9.97682 15.6446 10.2904 15.6611L11.3284 6.67273Z" fill="#007AFF" stroke="#007AFF" stroke-width="0.2"/>
<path d="M6.27499 15.062L6.27499 15.0621C6.29202 15.3757 6.05176 15.6437 5.73826 15.6609C5.73819 15.6609 5.73812 15.6609 5.73806 15.6609L6.27499 15.062ZM6.27499 15.062L5.81393 6.61211M6.27499 15.062L5.81393 6.61211M5.81393 6.61211C5.81393 6.6121 5.81393 6.6121 5.81393 6.61209M5.81393 6.61211L5.81393 6.61209M5.81393 6.61209C5.79688 6.29841 5.52881 6.05802 5.21513 6.07518L5.81393 6.61209ZM5.13913 15.124L5.13913 15.124L5.21508 6.07518C4.9015 6.09224 4.66116 6.36034 4.67819 6.67398L4.67819 6.67401L5.13913 15.124Z" fill="#007AFF" stroke="#007AFF" stroke-width="0.2"/>
<path d="M8.00781 15.6618C8.32195 15.6618 8.57656 15.4072 8.57656 15.093V6.64307C8.57656 6.32893 8.32195 6.07432 8.00781 6.07432C7.69367 6.07432 7.43906 6.32893 7.43906 6.64307V15.093C7.43906 15.4072 7.69367 15.6618 8.00781 15.6618Z" fill="#007AFF" stroke="#007AFF" stroke-width="0.2"/>
</svg>
