<svg width="19" height="18" viewBox="0 0 19 18" fill="none" xmlns="http://www.w3.org/2000/svg">
<path d="M16.6778 4.98452H15.0748V2.0978C15.0748 1.68157 14.7199 1.36445 14.3081 1.36445H4.69192C4.28013 1.36445 3.92524 1.68152 3.92524 2.0978V4.98452H2.32221C1.49427 4.98452 0.8 5.6211 0.8 6.42898V11.7947C0.8 12.6026 1.49428 13.2391 2.32221 13.2391H3.92534V15.902C3.92534 16.3183 4.28018 16.6354 4.69202 16.6354H14.308C14.7198 16.6354 15.0747 16.3183 15.0747 15.902V13.2391H16.6778C17.5057 13.2391 18.2 12.6026 18.2 11.7947V6.42898C18.2 5.62113 17.5057 4.98452 16.6778 4.98452ZM5.45857 2.83114H13.5414V4.98452H5.45857V2.83114ZM13.5413 15.1687H5.4587V15.168V15.1623V15.1566V15.1508V15.1449V15.1389V15.1329V15.1269V15.1207V15.1145V15.1082V15.1019V15.0954V15.089V15.0824V15.0758V15.0691V15.0624V15.0556V15.0487V15.0418V15.0348V15.0278V15.0206V15.0135V15.0062V14.9989V14.9916V14.9841V14.9767V14.9691V14.9615V14.9539V14.9461V14.9384V14.9305V14.9227V14.9147V14.9067V14.8986V14.8905V14.8824V14.8741V14.8659V14.8575V14.8491V14.8407V14.8322V14.8236V14.815V14.8064V14.7977V14.7889V14.7801V14.7712V14.7623V14.7534V14.7444V14.7353V14.7262V14.717V14.7078V14.6986V14.6893V14.6799V14.6705V14.6611V14.6516V14.6421V14.6325V14.6229V14.6132V14.6035V14.5937V14.5839V14.5741V14.5642V14.5542V14.5443V14.5343V14.5242V14.5141V14.504V14.4938V14.4836V14.4733V14.463V14.4527V14.4423V14.4319V14.4214V14.4109V14.4004V14.3898V14.3792V14.3686V14.3579V14.3472V14.3365V14.3257V14.3149V14.304V14.2932V14.2822V14.2713V14.2603V14.2493V14.2383V14.2272V14.2161V14.2049V14.1938V14.1826V14.1714V14.1601V14.1488V14.1375V14.1262V14.1148V14.1034V14.092V14.0805V14.069V14.0575V14.046V14.0344V14.0229V14.0113V13.9996V13.988V13.9763V13.9646V13.9529V13.9411V13.9294V13.9176V13.9058V13.8939V13.8821V13.8702V13.8583V13.8464V13.8345V13.8225V13.8105V13.7985V13.7865V13.7745V13.7625V13.7504V13.7383V13.7263V13.7142V13.702V13.6899V13.6777V13.6656V13.6534V13.6412V13.629V13.6168V13.6046V13.5923V13.5801V13.5678V13.5555V13.5432V13.5309V13.5186V13.5063V13.494V13.4816V13.4693V13.4569V13.4446V13.4322V13.4198V13.4074V13.3951V13.3827V13.3703V13.3579V13.3455V13.333V13.3206V13.3082V13.2958V13.2833V13.2709V13.2585V13.246V13.2336V13.2212V13.2087V13.1963V13.1838V13.1714V13.1589V13.1465V13.1341V13.1216V13.1092V13.0968V13.0843V13.0719V13.0595V13.0471V13.0346V13.0222V13.0098V12.9974V12.985V12.9726V12.9602V12.9479V12.9355V12.9231V12.9108V12.8984V12.8861V12.8737V12.8614V12.8491V12.8368V12.8245V12.8122V12.7999V12.7877V12.7754V12.7632V12.751V12.7388V12.7266V12.7144V12.7022V12.69V12.6779V12.6658V12.6537V12.6416V12.6295V12.6174V12.6054V12.5933V12.5813V12.5693V12.5573V12.5454V12.5334V12.5215V12.5096V12.4977V12.4858V12.474V12.4622V12.4504V12.4386V12.4268V12.4151V12.4034V12.3917V12.38V12.3684V12.3568V12.3452V12.3336V12.3221V12.3105V12.299V12.2876V12.2761V12.2647V12.2533V12.242V12.2306V12.2193V12.2081V12.1968V12.1856V12.1744V12.1633V12.1521V12.1411V12.13V12.119V12.108V12.097V12.0861V12.0752V12.0643V12.0535V12.0427V12.0319V12.0212V12.0105V11.9998V11.9892V11.9786V11.9681V11.9576V11.9471V11.9366V11.9262V11.9159V11.9056V11.8953V11.885V11.8748V11.8647V11.8546V11.8445V11.8344V11.8244V11.8145V11.8046V11.7947V11.7849V11.7751V11.7653V11.7557V11.746V11.7364V11.7268V11.7173V11.7078V11.6984V11.689V11.6797V11.6704V11.6612V11.652V11.6429V11.6338V11.6248V11.6158V11.6068V11.5979V11.5891V11.5803V11.5716V11.5629V11.5543V11.5457V11.5371V11.5287V11.5203V11.5119V11.5036V11.4953V11.4871V11.479V11.4709V11.4628V11.4549V11.4469V11.4391V11.4313V11.4235V11.4158V11.4082V11.4006V11.3931V11.3856V11.3783V11.3709V11.3636V11.3564V11.3493V11.3422V11.3352V11.3282V11.3213V11.3145V11.3077V11.301V11.2943V11.2877V11.2812V11.2748V11.2684V11.2621V11.2558V11.2496V11.2435V11.2375V11.2315V11.2256V11.2197V11.2139V11.2082V11.2053H13.5413L13.5413 15.1687ZM16.6667 6.45123V11.7725H15.0747V10.472C15.0747 10.0558 14.7198 9.7387 14.308 9.7387H4.69202C4.28023 9.7387 3.92534 10.0558 3.92534 10.472V11.7725H2.33332V6.45123H2.33478H2.33866H2.34284H2.3473H2.35206H2.35711H2.36244H2.36806H2.37397H2.38017H2.38664H2.3934H2.40044H2.40776H2.41536H2.42324H2.4314H2.43983H2.44853H2.45751H2.46676H2.47628H2.48607H2.49613H2.50646H2.51705H2.52791H2.53903H2.55042H2.56206H2.57397H2.58614H2.59856H2.61124H2.62418H2.63737H2.65081H2.66451H2.67846H2.69266H2.7071H2.7218H2.73674H2.75192H2.76735H2.78303H2.79894H2.8151H2.83149H2.84812H2.86499H2.8821H2.89944H2.91701H2.93482H2.95285H2.97112H2.98962H3.00834H3.02729H3.04647H3.06587H3.08549H3.10533H3.1254H3.14568H3.16619H3.18691H3.20784H3.229H3.25036H3.27194H3.29373H3.31573H3.33793H3.36035H3.38297H3.4058H3.42883H3.45207H3.47551H3.49914H3.52298H3.54702H3.57125H3.59568H3.62031H3.64513H3.67014H3.69534H3.72073H3.74631H3.77208H3.79804H3.82418H3.85051H3.87702H3.90371H3.93059H3.95764H3.98487H4.01228H4.03987H4.06763H4.09556H4.12367H4.15195H4.1804H4.20902H4.2378H4.26676H4.29588H4.32516H4.35461H4.38422H4.41399H4.44392H4.47401H4.50426H4.53466H4.56522H4.59594H4.6268H4.65782H4.68899H4.72031H4.75177H4.78338H4.81514H4.84705H4.87909H4.91128H4.94362H4.97609H5.0087H5.04144H5.07433H5.10735H5.1405H5.17379H5.20721H5.24076H5.27444H5.30824H5.34218H5.37624H5.41043H5.44474H5.47917H5.51372H5.54839H5.58319H5.6181H5.65312H5.68827H5.72353H5.7589H5.79438H5.82997H5.86567H5.90149H5.9374H5.97343H6.00956H6.04579H6.08213H6.11857H6.15511H6.19174H6.22848H6.26531H6.30224H6.33926H6.37638H6.41359H6.45089H6.48828H6.52575H6.56332H6.60097H6.63871H6.67653H6.71443H6.75242H6.79048H6.82863H6.86685H6.90515H6.94353H6.98198H7.0205H7.0591H7.09777H7.1365H7.17531H7.21418H7.25312H7.29213H7.3312H7.37033H7.40953H7.44878H7.4881H7.52747H7.5669H7.60639H7.64593H7.68552H7.72517H7.76487H7.80462H7.84441H7.88426H7.92415H7.96409H8.00407H8.04409H8.08416H8.12427H8.16441H8.2046H8.24482H8.28508H8.32538H8.3657H8.40606H8.44645H8.48688H8.52733H8.56781H8.60831H8.64884H8.6894H8.72998H8.77058H8.8112H8.85184H8.8925H8.93318H8.97387H9.01458H9.0553H9.09604H9.13678H9.17754H9.21831H9.25908H9.29986H9.34065H9.38144H9.42224H9.46304H9.50383H9.54463H9.58543H9.62623H9.66702H9.7078H9.74858H9.78936H9.83012H9.87088H9.91162H9.95235H9.99307H10.0338H10.0745H10.1151H10.1558H10.1964H10.2371H10.2777H10.3182H10.3588H10.3993H10.4398H10.4803H10.5207H10.5611H10.6015H10.6419H10.6822H10.7225H10.7627H10.8029H10.8431H10.8833H10.9234H10.9634H11.0034H11.0434H11.0833H11.1232H11.1631H11.2028H11.2426H11.2823H11.3219H11.3615H11.401H11.4405H11.4799H11.5193H11.5586H11.5978H11.637H11.6761H11.7152H11.7542H11.7931H11.832H11.8708H11.9095H11.9481H11.9867H12.0252H12.0637H12.102H12.1403H12.1785H12.2166H12.2547H12.2927H12.3306H12.3684H12.4061H12.4437H12.4813H12.5187H12.5561H12.5934H12.6306H12.6677H12.7047H12.7416H12.7784H12.8151H12.8517H12.8882H12.9247H12.961H12.9972H13.0333H13.0693H13.1052H13.141H13.1767H13.2122H13.2477H13.283H13.3183H13.3534H13.3884H13.4233H13.4581H13.4927H13.5272H13.5616H13.5959H13.6301H13.6641H13.698H13.7318H13.7655H13.799H13.8324H13.8656H13.8988H13.9318H13.9646H13.9973H14.0299H14.0624H14.0947H14.1268H14.1589H14.1907H14.2225H14.254H14.2855H14.3168H14.3479H14.3789H14.4097H14.4404H14.4709H14.5013H14.5315H14.5616H14.5915H14.6212H14.6508H14.6802H14.7095H14.7386H14.7675H14.7962H14.8248H14.8532H14.8815H14.9095H14.9374H14.9652H14.9927H15.0201H15.0473H15.0743H15.1011H15.1278H15.1543H15.1806H15.2067H15.2326H15.2583H15.2839H15.3092H15.3344H15.3594H15.3841H15.4087H15.4331H15.4573H15.4813H15.5051H15.5287H15.5521H15.5753H15.5983H15.6211H15.6437H15.666H15.6882H15.7102H15.7319H15.7534H15.7748H15.7959H15.8168H15.8374H15.8579H15.8781H15.8982H15.918H15.9375H15.9569H15.976H15.9949H16.0136H16.0321H16.0503H16.0683H16.086H16.1036H16.1208H16.1379H16.1547H16.1713H16.1877H16.2038H16.2196H16.2353H16.2506H16.2658H16.2807H16.2953H16.3097H16.3239H16.3377H16.3514H16.3648H16.3779H16.3908H16.4034H16.4158H16.4279H16.4398H16.4514H16.4627H16.4738H16.4846H16.4951H16.5054H16.5154H16.5251H16.5346H16.5438H16.5527H16.5614H16.5698H16.5779H16.5857H16.5932H16.6005H16.6075H16.6142H16.6206H16.6267H16.6326H16.6381H16.6434H16.6484H16.6531H16.6575H16.6616H16.6655H16.6667Z" fill="#73788B" stroke="#73788B" stroke-width="0.4"/>
<path d="M13.5277 7.25H12.1701C11.8755 7.25 11.6367 7.48878 11.6367 7.78334C11.6367 8.07791 11.8755 8.31669 12.1701 8.31669H13.5277C13.8222 8.31669 14.061 8.07791 14.061 7.78334C14.061 7.48878 13.8222 7.25 13.5277 7.25Z" fill="#73788B"/>
<path d="M11.3119 13.4946H6.6896C6.39506 13.4946 6.15625 13.7334 6.15625 14.028C6.15625 14.3225 6.39503 14.5613 6.6896 14.5613H11.3118C11.6064 14.5613 11.8452 14.3225 11.8452 14.028C11.8452 13.7334 11.6064 13.4946 11.3119 13.4946Z" fill="#73788B"/>
<path d="M11.3119 11.813H6.6896C6.39506 11.813 6.15625 12.0518 6.15625 12.3463C6.15625 12.6409 6.39503 12.8797 6.6896 12.8797H11.3118C11.6064 12.8797 11.8452 12.6409 11.8452 12.3463C11.8452 12.0518 11.6064 11.813 11.3119 11.813Z" fill="#73788B"/>
</svg>
