<svg width="20" height="20" viewBox="0 0 20 20" fill="none" xmlns="http://www.w3.org/2000/svg">
<path d="M0 10C0 9.135 0.11 8.297 0.316 7.496C0.868465 7.52504 1.4182 7.40075 1.90444 7.13687C2.39068 6.87299 2.79448 6.47979 3.07121 6.00074C3.34793 5.5217 3.48681 4.97546 3.47247 4.42242C3.45814 3.86938 3.29117 3.33107 2.99 2.867C4.19894 1.67757 5.69079 0.815495 7.325 0.362C7.57599 0.855472 7.95864 1.26987 8.43058 1.55931C8.90253 1.84875 9.44537 2.00195 9.999 2.00195C10.5526 2.00195 11.0955 1.84875 11.5674 1.55931C12.0394 1.26987 12.422 0.855472 12.673 0.362C14.3072 0.815495 15.7991 1.67757 17.008 2.867C16.7065 3.33115 16.5393 3.86967 16.5248 4.42296C16.5104 4.97626 16.6493 5.52276 16.9262 6.00201C17.2031 6.48126 17.6071 6.87457 18.0937 7.13841C18.5802 7.40226 19.1303 7.52637 19.683 7.497C19.889 8.297 19.999 9.135 19.999 10C19.999 10.865 19.889 11.703 19.683 12.504C19.1305 12.4748 18.5806 12.5989 18.0942 12.8627C17.6078 13.1265 17.2039 13.5197 16.927 13.9988C16.6502 14.4779 16.5112 15.0242 16.5255 15.5773C16.5398 16.1304 16.7068 16.6689 17.008 17.133C15.7991 18.3224 14.3072 19.1845 12.673 19.638C12.422 19.1445 12.0394 18.7301 11.5674 18.4407C11.0955 18.1512 10.5526 17.998 9.999 17.998C9.44537 17.998 8.90253 18.1512 8.43058 18.4407C7.95864 18.7301 7.57599 19.1445 7.325 19.638C5.69079 19.1845 4.19894 18.3224 2.99 17.133C3.29151 16.6688 3.45873 16.1303 3.47317 15.577C3.48761 15.0237 3.3487 14.4772 3.07181 13.998C2.79492 13.5187 2.39085 13.1254 1.90431 12.8616C1.41776 12.5977 0.867704 12.4736 0.315 12.503C0.11 11.704 0 10.866 0 10ZM4.804 13C5.434 14.091 5.614 15.346 5.368 16.524C5.776 16.814 6.21 17.065 6.665 17.274C7.58167 16.4528 8.76931 15.9991 10 16C11.26 16 12.438 16.471 13.335 17.274C13.79 17.065 14.224 16.814 14.632 16.524C14.3794 15.32 14.5803 14.0651 15.196 13C15.8106 11.9344 16.797 11.1332 17.966 10.75C18.0122 10.2511 18.0122 9.74893 17.966 9.25C16.7966 8.86706 15.8099 8.06582 15.195 7C14.5793 5.93493 14.3784 4.68003 14.631 3.476C14.2231 3.18592 13.7889 2.93482 13.334 2.726C12.4176 3.54693 11.2303 4.00061 10 4C8.76931 4.00085 7.58167 3.54716 6.665 2.726C6.21013 2.93482 5.77589 3.18593 5.368 3.476C5.62056 4.68003 5.41972 5.93493 4.804 7C4.18937 8.06563 3.20298 8.86685 2.034 9.25C1.98775 9.74893 1.98775 10.2511 2.034 10.75C3.20335 11.1329 4.19013 11.9342 4.805 13H4.804ZM10 13C9.20435 13 8.44129 12.6839 7.87868 12.1213C7.31607 11.5587 7 10.7956 7 10C7 9.20435 7.31607 8.44129 7.87868 7.87868C8.44129 7.31607 9.20435 7 10 7C10.7956 7 11.5587 7.31607 12.1213 7.87868C12.6839 8.44129 13 9.20435 13 10C13 10.7956 12.6839 11.5587 12.1213 12.1213C11.5587 12.6839 10.7956 13 10 13ZM10 11C10.2652 11 10.5196 10.8946 10.7071 10.7071C10.8946 10.5196 11 10.2652 11 10C11 9.73478 10.8946 9.48043 10.7071 9.29289C10.5196 9.10536 10.2652 9 10 9C9.73478 9 9.48043 9.10536 9.29289 9.29289C9.10536 9.48043 9 9.73478 9 10C9 10.2652 9.10536 10.5196 9.29289 10.7071C9.48043 10.8946 9.73478 11 10 11V11Z" fill="#73788B"/>
</svg>
